<?xml version="1.0" encoding="utf-8"?>
<!-- Generator: Adobe Illustrator 25.0.1, SVG Export Plug-In . SVG Version: 6.00 Build 0)  -->
<svg version="1.1" id="Capa_1" xmlns="http://www.w3.org/2000/svg" xmlns:xlink="http://www.w3.org/1999/xlink" x="0px" y="0px"
	 viewBox="0 0 45 45" style="enable-background:new 0 0 45 45;" xml:space="preserve">
<style type="text/css">
	.st0{fill:#FFFFFF;}
</style>
<path class="st0" d="M35,8.1c-0.3-0.1-6.3-3.6-13.1,0c-4.1,2.2-8,1.1-9.5,0.4V6.4c0-0.8-0.7-1.5-1.5-1.5c-0.8,0-1.5,0.7-1.5,1.5v2.9
	v14.6v14.5c0,0.8,0.6,1.7,1.4,1.7c0.8,0,1.5-0.7,1.5-1.5V26.2c1.1,0.4,2.6,0.7,4.4,0.7c1.9,0,4.1-0.4,6.5-1.7
	c5.2-2.8,9.9-0.1,10.2,0c0.6,0.3,1.1,0.3,1.5,0c0.4-0.3,0.7-0.7,0.7-1.2h0.1V9.3C35.7,8.8,35.4,8.4,35,8.1z"/>
</svg>
