<?xml version="1.0" encoding="utf-8"?>
<!-- Generator: Adobe Illustrator 16.0.0, SVG Export Plug-In . SVG Version: 6.00 Build 0)  -->
<!DOCTYPE svg PUBLIC "-//W3C//DTD SVG 1.1//EN" "http://www.w3.org/Graphics/SVG/1.1/DTD/svg11.dtd">
<svg version="1.1" id="Capa_1" xmlns="http://www.w3.org/2000/svg" xmlns:xlink="http://www.w3.org/1999/xlink" x="0px" y="0px"
	 width="45px" height="45px" viewBox="0 0 45 45" enable-background="new 0 0 45 45" xml:space="preserve">
	 <rect width="100%" height="100%" fill="white"/>
<path fill="#EB5941" d="M0,0v44.999h45V0H0z M35.139,20.949l-11.325,0.754l5.898-9.711C32.648,14.016,34.688,17.236,35.139,20.949z
	 M23.193,9.778c1.912,0.104,3.715,0.618,5.311,1.475l-5.311,8.743V9.778z M22.484,35.26c-7.047,0-12.759-5.713-12.759-12.759
	c0-6.807,5.335-12.354,12.05-12.723v13.007l9.002,9.4C28.544,34.098,25.652,35.26,22.484,35.26z M31.796,31.202l-7.75-8.094
	l11.189-0.745c0,0.047,0.007,0.091,0.007,0.138C35.243,25.868,33.928,28.922,31.796,31.202z"/>
</svg>
