<?xml version="1.0" encoding="utf-8"?>
<!-- Generator: Adobe Illustrator 25.0.1, SVG Export Plug-In . SVG Version: 6.00 Build 0)  -->
<svg version="1.1" id="Capa_1" xmlns="http://www.w3.org/2000/svg" xmlns:xlink="http://www.w3.org/1999/xlink" x="0px" y="0px"
	 viewBox="0 0 45 45" style="enable-background:new 0 0 45 45;" xml:space="preserve">
<style type="text/css">
	.st0{fill:#A5A5A5;}
	.st1{fill:#FFFFFF;}
</style>
<path class="st0" d="M35,8.1c-0.3-0.1-6.3-3.6-13.1,0c-4.1,2.2-8,1.1-9.5,0.4V6.4c0-0.8-0.7-1.5-1.5-1.5S9.4,5.6,9.4,6.4v2.9v14.6
	v14.5c0,0.8,0.6,1.7,1.4,1.7c0.8,0,1.5-0.7,1.5-1.5V26.2c1.1,0.4,2.6,0.7,4.4,0.7c1.9,0,4.1-0.4,6.5-1.7c5.2-2.8,9.9-0.1,10.2,0
	c0.6,0.3,1.1,0.3,1.5,0s0.7-0.7,0.7-1.2h0.1V9.3C35.7,8.8,35.4,8.4,35,8.1z"/>
<path class="st1" d="M33.2,10.3c-0.3-0.1-5.9-2.7-12.2,0c-3.8,1.6-7.4,0.8-8.8,0.3l-0.1,13.1c1,0.3,2.4,0.5,4.1,0.5
	c1.8,0,3.8-0.3,6-1.3c4.8-2.1,9.2-0.1,9.5,0c0.6,0.2,1,0.2,1.4,0c0.4-0.2,0.7-0.5,0.7-0.9h0.1V11.2C33.9,10.9,33.6,10.6,33.2,10.3z"
	/>
</svg>
