<svg id="Layer_1" data-name="Layer 1" xmlns="http://www.w3.org/2000/svg" viewBox="0 0 318 159"><defs><style>.cls-1,.cls-2{fill:none;}.cls-1{stroke:#ccc;}.cls-2{stroke:#eb5941;}.cls-3,.cls-4{fill:#40b0a6;}.cls-4{stroke:#40b0a6;}.cls-5,.cls-6{fill:#ff815a;}.cls-6{stroke:#ff815a;}.cls-7,.cls-8{fill:red;}.cls-8{stroke:red;}</style></defs><line class="cls-1" x1="23.98" y1="158" x2="23.98" y2="2"/><line class="cls-1" x1="73.19" y1="158" x2="73.19" y2="2"/><line class="cls-1" x1="122.4" y1="158" x2="122.4" y2="2"/><line class="cls-1" x1="49.22" y1="159" x2="49.22" y2="3"/><line class="cls-1" x1="98.43" y1="159" x2="98.43" y2="3"/><line class="cls-1" x1="147.64" y1="159" x2="147.64" y2="3"/><line class="cls-1" x1="170.36" y1="157" x2="170.36" y2="1"/><line class="cls-1" x1="219.57" y1="157" x2="219.57" y2="1"/><line class="cls-1" x1="268.78" y1="157" x2="268.78" y2="1"/><line class="cls-1" x1="195.6" y1="158" x2="195.6" y2="2"/><line class="cls-1" x1="244.81" y1="158" x2="244.81" y2="2"/><line class="cls-1" x1="294.02" y1="158" x2="294.02" y2="2"/><line class="cls-1" x1="316.5" y1="140.83" x2="1.5" y2="140.83"/><line class="cls-1" x1="316.5" y1="91.62" x2="1.5" y2="91.62"/><line class="cls-1" x1="316.5" y1="42.41" x2="1.5" y2="42.41"/><line class="cls-1" x1="316.5" y1="115.59" x2="1.5" y2="115.59"/><line class="cls-1" x1="316.5" y1="66.38" x2="1.5" y2="66.38"/><line class="cls-1" x1="316.5" y1="17.17" x2="1.5" y2="17.17"/><rect class="cls-2" x="1.5" y="2" width="315" height="156" rx="3.2"/><circle class="cls-3" cx="132.4" cy="25.43" r="5"/><circle class="cls-3" cx="33.98" cy="47.15" r="5"/><circle class="cls-3" cx="83.19" cy="26.96" r="5"/><circle class="cls-3" cx="180.36" cy="16.34" r="5"/><circle class="cls-3" cx="229.57" cy="17.17" r="5"/><circle class="cls-3" cx="278.78" cy="17.17" r="5"/><line class="cls-4" x1="33.98" y1="47.15" x2="83.19" y2="26.96"/><line class="cls-4" x1="83.19" y1="26.96" x2="132.4" y2="25.43"/><line class="cls-4" x1="180.36" y1="16.34" x2="229.57" y2="17.17"/><circle class="cls-5" cx="33.98" cy="139.19" r="5"/><circle class="cls-5" cx="83.08" cy="115.59" r="5"/><circle class="cls-5" cx="132.4" cy="91.62" r="5"/><circle class="cls-5" cx="180.36" cy="57.54" r="5"/><circle class="cls-5" cx="229.57" cy="36.75" r="5"/><line class="cls-6" x1="33.98" y1="139.19" x2="83.08" y2="115.59"/><line class="cls-6" x1="83.08" y1="115.59" x2="132.4" y2="91.62"/><line class="cls-6" x1="132.4" y1="91.62" x2="180.36" y2="57.54"/><line class="cls-6" x1="180.36" y1="57.54" x2="229.57" y2="36.75"/><line class="cls-6" x1="229.57" y1="36.75" x2="278.78" y2="17.17"/><line class="cls-4" x1="132.4" y1="25.43" x2="180.36" y2="16.34"/><line class="cls-4" x1="229.57" y1="17.17" x2="278.78" y2="17.17"/><circle class="cls-5" cx="278.78" cy="17.17" r="5"/><circle class="cls-7" cx="33.98" cy="139.19" r="5"/><line class="cls-8" x1="33.98" y1="139.19" x2="83.19" y2="139.19"/><circle class="cls-7" cx="83.19" cy="139.19" r="5"/><circle class="cls-7" cx="132.4" cy="115.59" r="5"/><circle class="cls-7" cx="180.36" cy="115.59" r="5"/><circle class="cls-7" cx="229.57" cy="66.38" r="5"/><circle class="cls-7" cx="278.78" cy="66.38" r="5"/><line class="cls-8" x1="83.19" y1="139.19" x2="132.4" y2="115.59"/><line class="cls-8" x1="132.4" y1="115.59" x2="180.36" y2="115.59"/><line class="cls-8" x1="180.36" y1="115.59" x2="229.57" y2="66.38"/><line class="cls-8" x1="229.57" y1="66.38" x2="278.78" y2="66.38"/></svg>