<svg id="Layer_1" data-name="Layer 1" xmlns="http://www.w3.org/2000/svg" viewBox="0 0 318 159"><defs><style>.cls-1,.cls-3{fill:none;}.cls-1{stroke:#ccc;}.cls-2{fill:#ff4c39;}.cls-3{stroke:#eb5941;}</style></defs><line class="cls-1" x1="23.98" y1="158" x2="23.98" y2="2"/><line class="cls-1" x1="73.19" y1="158" x2="73.19" y2="2"/><line class="cls-1" x1="122.4" y1="158" x2="122.4" y2="2"/><line class="cls-1" x1="49.22" y1="159" x2="49.22" y2="3"/><line class="cls-1" x1="98.43" y1="159" x2="98.43" y2="3"/><line class="cls-1" x1="147.64" y1="159" x2="147.64" y2="3"/><line class="cls-1" x1="170.36" y1="157" x2="170.36" y2="1"/><line class="cls-1" x1="219.57" y1="157" x2="219.57" y2="1"/><line class="cls-1" x1="268.78" y1="157" x2="268.78" y2="1"/><line class="cls-1" x1="195.6" y1="158" x2="195.6" y2="2"/><line class="cls-1" x1="244.81" y1="158" x2="244.81" y2="2"/><line class="cls-1" x1="294.02" y1="158" x2="294.02" y2="2"/><rect class="cls-2" x="140.75" y="-133.13" width="10.01" height="288.52" transform="translate(156.89 -134.63) rotate(90)"/><rect class="cls-2" x="106.33" y="-79.32" width="10.01" height="219.67" transform="translate(141.86 -80.82) rotate(90)"/><rect class="cls-2" x="21.98" y="24.42" width="10.01" height="50.98" transform="translate(76.9 22.92) rotate(90)"/><rect class="cls-2" x="40.58" y="25.21" width="10.01" height="88.18" transform="translate(114.89 23.71) rotate(90)"/><rect class="cls-2" x="100.81" y="-15.62" width="10.01" height="208.63" transform="translate(194.51 -17.12) rotate(90)"/><rect class="cls-2" x="138.42" y="-33.84" width="10.01" height="283.86" transform="translate(251.52 -35.34) rotate(90)"/><rect class="cls-2" x="59.66" y="64.32" width="10.01" height="126.33" transform="translate(192.14 62.82) rotate(90)"/><rect class="cls-2" x="69.56" y="73.8" width="10.01" height="146.14" transform="translate(221.44 72.3) rotate(90)"/><rect class="cls-3" x="1.5" y="2" width="315" height="156" rx="3.2"/></svg>