<svg id="Layer_1" data-name="Layer 1" xmlns="http://www.w3.org/2000/svg" viewBox="0 0 318 159"><defs><style>.cls-1,.cls-2{fill:none;}.cls-1{stroke:#ccc;}.cls-2{stroke:#eb5941;}.cls-3,.cls-4{fill:#40b0a6;}.cls-4{stroke:#40b0a6;}.cls-5,.cls-6{fill:#fff06c;}.cls-6{stroke:#fff06c;}.cls-7,.cls-8{fill:#ff815a;}.cls-8{stroke:#ff815a;}</style></defs><line class="cls-1" x1="23.98" y1="158" x2="23.98" y2="2"/><line class="cls-1" x1="73.19" y1="158" x2="73.19" y2="2"/><line class="cls-1" x1="122.4" y1="158" x2="122.4" y2="2"/><line class="cls-1" x1="49.22" y1="159" x2="49.22" y2="3"/><line class="cls-1" x1="98.43" y1="159" x2="98.43" y2="3"/><line class="cls-1" x1="147.64" y1="159" x2="147.64" y2="3"/><line class="cls-1" x1="170.36" y1="157" x2="170.36" y2="1"/><line class="cls-1" x1="219.57" y1="157" x2="219.57" y2="1"/><line class="cls-1" x1="268.78" y1="157" x2="268.78" y2="1"/><line class="cls-1" x1="195.6" y1="158" x2="195.6" y2="2"/><line class="cls-1" x1="244.81" y1="158" x2="244.81" y2="2"/><line class="cls-1" x1="294.02" y1="158" x2="294.02" y2="2"/><line class="cls-1" x1="316.5" y1="140.83" x2="1.5" y2="140.83"/><line class="cls-1" x1="316.5" y1="91.62" x2="1.5" y2="91.62"/><line class="cls-1" x1="316.5" y1="42.41" x2="1.5" y2="42.41"/><line class="cls-1" x1="316.5" y1="115.59" x2="1.5" y2="115.59"/><line class="cls-1" x1="316.5" y1="66.38" x2="1.5" y2="66.38"/><line class="cls-1" x1="316.5" y1="17.17" x2="1.5" y2="17.17"/><rect class="cls-2" x="1.5" y="2" width="315" height="156" rx="3.2"/><circle class="cls-3" cx="132.4" cy="64.74" r="5"/><circle class="cls-3" cx="33.98" cy="139.19" r="5"/><circle class="cls-3" cx="83.19" cy="89.98" r="5"/><circle class="cls-3" cx="180.36" cy="77.36" r="5"/><circle class="cls-3" cx="229.57" cy="54.05" r="5"/><circle class="cls-3" cx="278.78" cy="139.19" r="5"/><line class="cls-4" x1="33.98" y1="139.19" x2="83.19" y2="89.98"/><line class="cls-4" x1="83.19" y1="89.98" x2="132.4" y2="64.74"/><line class="cls-4" x1="180.36" y1="77.36" x2="229.57" y2="54.05"/><circle class="cls-5" cx="33.98" cy="79" r="5"/><line class="cls-6" x1="83.08" y1="139.08" x2="132.4" y2="31.09"/><circle class="cls-7" cx="33.98" cy="31.09" r="5"/><circle class="cls-7" cx="83.08" cy="65.71" r="5"/><circle class="cls-7" cx="132.4" cy="91.62" r="5"/><circle class="cls-7" cx="180.36" cy="57.54" r="5"/><circle class="cls-7" cx="229.57" cy="120.59" r="5"/><circle class="cls-7" cx="278.78" cy="91.62" r="5"/><line class="cls-8" x1="33.98" y1="31.09" x2="83.08" y2="66.38"/><line class="cls-8" x1="83.19" y1="65.71" x2="132.4" y2="91.62"/><line class="cls-8" x1="132.4" y1="91.62" x2="180.36" y2="57.54"/><line class="cls-8" x1="180.36" y1="57.54" x2="229.57" y2="120.59"/><line class="cls-8" x1="229.57" y1="120.59" x2="278.78" y2="91.62"/><line class="cls-4" x1="132.4" y1="64.74" x2="180.36" y2="77.36"/><line class="cls-4" x1="229.57" y1="54.05" x2="278.78" y2="139.19"/><circle class="cls-5" cx="83.08" cy="139.08" r="5"/><circle class="cls-5" cx="132.4" cy="31.09" r="5"/><circle class="cls-5" cx="180.36" cy="105.5" r="5"/><circle class="cls-5" cx="229.57" cy="84" r="5"/><circle class="cls-5" cx="278.78" cy="54.05" r="5"/><line class="cls-6" x1="83.08" y1="139.08" x2="33.98" y2="79"/><line class="cls-6" x1="132.4" y1="31.09" x2="180.36" y2="105.5"/><line class="cls-6" x1="180.36" y1="105.5" x2="229.57" y2="84"/><line class="cls-6" x1="229.57" y1="84.1" x2="278.78" y2="54.05"/></svg>