<svg id="Layer_1" data-name="Layer 1" xmlns="http://www.w3.org/2000/svg" viewBox="0 0 318 159"><defs><style>.cls-1,.cls-2{fill:none;}.cls-1{stroke:#ccc;}.cls-2{stroke:#eb5941;}.cls-3{fill:#f7a35c;}.cls-4{fill:#90ed7d;}.cls-5{fill:#434348;}.cls-6{fill:#7cb5ec;}.cls-7{fill:#eb5941;}</style></defs><line class="cls-1" x1="23.98" y1="158" x2="23.98" y2="2"/><line class="cls-1" x1="73.19" y1="158" x2="73.19" y2="2"/><line class="cls-1" x1="122.4" y1="158" x2="122.4" y2="2"/><line class="cls-1" x1="49.22" y1="159" x2="49.22" y2="3"/><line class="cls-1" x1="98.43" y1="159" x2="98.43" y2="3"/><line class="cls-1" x1="147.64" y1="159" x2="147.64" y2="3"/><line class="cls-1" x1="170.36" y1="157" x2="170.36" y2="1"/><line class="cls-1" x1="219.57" y1="157" x2="219.57" y2="1"/><line class="cls-1" x1="268.78" y1="157" x2="268.78" y2="1"/><line class="cls-1" x1="195.6" y1="158" x2="195.6" y2="2"/><line class="cls-1" x1="244.81" y1="158" x2="244.81" y2="2"/><line class="cls-1" x1="294.02" y1="158" x2="294.02" y2="2"/><rect class="cls-2" x="1.5" y="2" width="315" height="156" rx="3.2"/><rect class="cls-3" x="149" y="-122.15" width="20" height="288.52" transform="translate(181.11 -136.89) rotate(90)"/><rect class="cls-4" x="149" y="-48.46" width="20" height="219.67" transform="translate(220.37 -97.63) rotate(90)"/><rect class="cls-5" x="149" y="75.14" width="20" height="50.98" transform="translate(259.63 -58.37) rotate(90)"/><rect class="cls-6" x="149" y="37.44" width="20" height="204.89" transform="translate(298.89 -19.11) rotate(90)"/><circle class="cls-7" cx="222.21" cy="22.11" r="3.35"/><circle class="cls-7" cx="159" cy="61.37" r="3.35"/><circle class="cls-7" cx="142.62" cy="100.63" r="3.35"/><circle class="cls-7" cx="184.49" cy="139.89" r="3.35"/></svg>