<svg id="Layer_1" data-name="Layer 1" xmlns="http://www.w3.org/2000/svg" viewBox="0 0 318 159"><defs><style>.cls-1,.cls-2{fill:none;}.cls-1{stroke:#ccc;}.cls-2{stroke:#eb5941;}.cls-3,.cls-4{fill:#ff815a;}.cls-4{stroke:#ff815a;}.cls-5,.cls-6{fill:red;}.cls-6{stroke:red;}</style></defs><line class="cls-1" x1="23.98" y1="158" x2="23.98" y2="2"/><line class="cls-1" x1="73.19" y1="158" x2="73.19" y2="2"/><line class="cls-1" x1="122.4" y1="158" x2="122.4" y2="2"/><line class="cls-1" x1="49.22" y1="159" x2="49.22" y2="3"/><line class="cls-1" x1="98.43" y1="159" x2="98.43" y2="3"/><line class="cls-1" x1="147.64" y1="159" x2="147.64" y2="3"/><line class="cls-1" x1="170.36" y1="157" x2="170.36" y2="1"/><line class="cls-1" x1="219.57" y1="157" x2="219.57" y2="1"/><line class="cls-1" x1="268.78" y1="157" x2="268.78" y2="1"/><line class="cls-1" x1="195.6" y1="158" x2="195.6" y2="2"/><line class="cls-1" x1="244.81" y1="158" x2="244.81" y2="2"/><line class="cls-1" x1="294.02" y1="158" x2="294.02" y2="2"/><line class="cls-1" x1="316.5" y1="140.83" x2="1.5" y2="140.83"/><line class="cls-1" x1="316.5" y1="91.62" x2="1.5" y2="91.62"/><line class="cls-1" x1="316.5" y1="42.41" x2="1.5" y2="42.41"/><line class="cls-1" x1="316.5" y1="115.59" x2="1.5" y2="115.59"/><line class="cls-1" x1="316.5" y1="66.38" x2="1.5" y2="66.38"/><line class="cls-1" x1="316.5" y1="17.17" x2="1.5" y2="17.17"/><rect class="cls-2" x="1.5" y="2" width="315" height="156" rx="3.2"/><circle class="cls-3" cx="33.98" cy="17.17" r="5"/><circle class="cls-3" cx="83.19" cy="17.17" r="5"/><circle class="cls-3" cx="132.4" cy="33.58" r="5"/><circle class="cls-3" cx="180.36" cy="41.75" r="5"/><circle class="cls-3" cx="229.57" cy="50.05" r="5"/><line class="cls-4" x1="33.98" y1="17.17" x2="83.19" y2="17.17"/><line class="cls-4" x1="83.19" y1="17.17" x2="132.4" y2="33.58"/><line class="cls-4" x1="132.4" y1="33.58" x2="180.36" y2="41.75"/><line class="cls-4" x1="180.36" y1="41.75" x2="229.57" y2="50.05"/><line class="cls-4" x1="229.57" y1="50.05" x2="278.78" y2="50.05"/><circle class="cls-3" cx="278.78" cy="50.05" r="5"/><circle class="cls-5" cx="33.98" cy="17.17" r="5"/><line class="cls-6" x1="33.98" y1="17.17" x2="83.19" y2="50.05"/><circle class="cls-5" cx="83.19" cy="50.05" r="5"/><circle class="cls-5" cx="132.4" cy="76.17" r="5"/><circle class="cls-5" cx="180.36" cy="101.63" r="5"/><circle class="cls-5" cx="229.57" cy="120.59" r="5"/><circle class="cls-5" cx="278.78" cy="140.83" r="5"/><line class="cls-6" x1="83.19" y1="50.05" x2="132.4" y2="76.17"/><line class="cls-6" x1="132.4" y1="76.17" x2="180.36" y2="101.63"/><line class="cls-6" x1="180.36" y1="101.63" x2="229.57" y2="120.59"/><line class="cls-6" x1="229.57" y1="120.59" x2="278.78" y2="140.83"/></svg>