<svg id="Layer_1" data-name="Layer 1" xmlns="http://www.w3.org/2000/svg" viewBox="0 0 318 159"><defs><style>.cls-1,.cls-2{fill:none;}.cls-1{stroke:#ccc;}.cls-2{stroke:#eb5941;}.cls-3,.cls-7{fill:#75ea7b;}.cls-4,.cls-6{fill:#f04a47;}.cls-5{stroke:#000;}.cls-6{stroke:#f04a47;}.cls-7{stroke:#75ea7b;}</style></defs><line class="cls-1" x1="316.5" y1="80" x2="1.5" y2="80"/><rect class="cls-2" x="1.5" y="2" width="315" height="156" rx="3.2"/><rect x="60.3" y="67.23" width="6.98" height="6.98"/><rect x="125.96" y="60.25" width="6.98" height="6.98"/><rect x="191.62" y="67.23" width="6.98" height="6.98"/><rect x="257.27" y="76.54" width="6.98" height="6.98"/><circle class="cls-3" cx="63.77" cy="34.56" r="3.47"/><circle class="cls-3" cx="129.45" cy="49.12" r="3.47"/><circle class="cls-3" cx="195.11" cy="19.2" r="3.47"/><circle class="cls-4" cx="63.79" cy="144.19" r="3.47"/><circle class="cls-4" cx="129.45" cy="92.77" r="3.47"/><circle class="cls-4" cx="260.76" cy="130.56" r="3.47"/><line class="cls-5" x1="129.45" y1="63.74" x2="63.79" y2="70.72"/><line class="cls-5" x1="129.45" y1="63.74" x2="195.11" y2="70.72"/><line class="cls-5" x1="260.76" y1="80.03" x2="195.11" y2="71.26"/><line class="cls-6" x1="63.79" y1="144.19" x2="129.45" y2="92.77"/><line class="cls-6" x1="129.45" y1="92.77" x2="260.76" y2="130.56"/><line class="cls-7" x1="63.77" y1="34.56" x2="129.45" y2="49.12"/><line class="cls-7" x1="129.45" y1="49.12" x2="195.11" y2="19.2"/></svg>