<svg id="Layer_1" data-name="Layer 1" xmlns="http://www.w3.org/2000/svg" viewBox="0 0 318 159"><defs><style>.cls-1,.cls-6{fill:none;}.cls-1{stroke:#ccc;}.cls-2{fill:#f7a35c;}.cls-3{fill:#90ed7d;}.cls-4{fill:#434348;}.cls-5{fill:#7cb5ec;}.cls-6{stroke:#eb5941;}</style></defs><line class="cls-1" x1="23.98" y1="158" x2="23.98" y2="2"/><line class="cls-1" x1="73.19" y1="158" x2="73.19" y2="2"/><line class="cls-1" x1="122.4" y1="158" x2="122.4" y2="2"/><line class="cls-1" x1="49.22" y1="159" x2="49.22" y2="3"/><line class="cls-1" x1="98.43" y1="159" x2="98.43" y2="3"/><line class="cls-1" x1="147.64" y1="159" x2="147.64" y2="3"/><line class="cls-1" x1="170.36" y1="157" x2="170.36" y2="1"/><line class="cls-1" x1="219.57" y1="157" x2="219.57" y2="1"/><line class="cls-1" x1="268.78" y1="157" x2="268.78" y2="1"/><line class="cls-1" x1="195.6" y1="158" x2="195.6" y2="2"/><line class="cls-1" x1="244.81" y1="158" x2="244.81" y2="2"/><line class="cls-1" x1="294.02" y1="158" x2="294.02" y2="2"/><rect class="cls-2" x="1.5" y="5.46" width="131.91" height="35"/><rect class="cls-3" x="1.5" y="44.1" width="70.87" height="35"/><rect class="cls-4" x="1.5" y="82.74" width="298.06" height="35"/><rect class="cls-5" x="1.5" y="121.38" width="204.89" height="35"/><rect class="cls-6" x="1.5" y="2" width="315" height="156" rx="3.2"/></svg>