<svg id="Layer_1" data-name="Layer 1" xmlns="http://www.w3.org/2000/svg" viewBox="0 0 318 159"><defs><style>.cls-1,.cls-2{fill:none;}.cls-1{stroke:#ccc;}.cls-2{stroke:#eb5941;}.cls-3{fill:#f7a35c;}.cls-4{fill:#90ed7d;}.cls-5{fill:#434348;}.cls-6{fill:#7cb5ec;}</style></defs><line class="cls-1" x1="23.98" y1="158" x2="23.98" y2="2"/><line class="cls-1" x1="73.19" y1="158" x2="73.19" y2="2"/><line class="cls-1" x1="122.4" y1="158" x2="122.4" y2="2"/><line class="cls-1" x1="49.22" y1="159" x2="49.22" y2="3"/><line class="cls-1" x1="98.43" y1="159" x2="98.43" y2="3"/><line class="cls-1" x1="147.64" y1="159" x2="147.64" y2="3"/><line class="cls-1" x1="170.36" y1="157" x2="170.36" y2="1"/><line class="cls-1" x1="219.57" y1="157" x2="219.57" y2="1"/><line class="cls-1" x1="268.78" y1="157" x2="268.78" y2="1"/><line class="cls-1" x1="195.6" y1="158" x2="195.6" y2="2"/><line class="cls-1" x1="244.81" y1="158" x2="244.81" y2="2"/><line class="cls-1" x1="294.02" y1="158" x2="294.02" y2="2"/><rect class="cls-2" x="1.5" y="2" width="315" height="156" rx="3.2"/><rect class="cls-3" x="135.76" y="-123.15" width="20" height="288.52" transform="translate(166.87 -124.65) rotate(90)"/><rect class="cls-4" x="101.34" y="-49.46" width="20" height="219.67" transform="translate(171.71 -50.96) rotate(90)"/><rect class="cls-5" x="16.99" y="74.14" width="20" height="50.98" transform="translate(126.62 72.64) rotate(90)"/><rect class="cls-6" x="93.94" y="36.44" width="20" height="204.89" transform="translate(242.83 34.94) rotate(90)"/></svg>