<?xml version="1.0" encoding="utf-8"?>
<!-- Generator: Adobe Illustrator 25.0.1, SVG Export Plug-In . SVG Version: 6.00 Build 0)  -->
<svg version="1.1" id="Capa_1" xmlns="http://www.w3.org/2000/svg" xmlns:xlink="http://www.w3.org/1999/xlink" x="0px" y="0px"
	 viewBox="0 0 50 50" style="enable-background:new 0 0 50 50;" xml:space="preserve">
<style type="text/css">
	.st0{enable-background:new    ;}
	.st1{fill:#A5A5A5;}
</style>
<g class="st0">
	<g>
		<path class="st1" d="M41.2,8.4H8.8C8.3,8.4,8,8.8,8,9.3v31.5c0,0.4,0.4,0.8,0.8,0.8h32.5c0.4,0,0.8-0.4,0.8-0.8V9.3
			C42.1,8.8,41.7,8.4,41.2,8.4z M21.2,16.2v-6.1h12.2v6v0.1L21.2,16.2C21.2,16.3,21.2,16.2,21.2,16.2z M21.2,25.8h12.2v0.1V32H21.2
			V25.8C21.2,25.9,21.2,25.9,21.2,25.8z M26.4,24.2H14.2V18h12.2V24.2z M9.6,10.1h9.8v6v0.1H9.6V10.1z M9.6,18h2.9v6.2H9.6V18z
			 M9.6,25.8h9.8v0.1V32H9.6V25.8z M12.5,39.9H9.6v-6.2h2.9V39.9z M26.4,39.9H14.2v-6.2h12.2V39.9z M40.3,39.9H28.1v-6.2h12.2V39.9z
			 M40.3,32H35v-6.1v-0.1h5.2V32z M40.3,24.2H28.1V18h12.2V24.2z M40.3,16.3H35v-0.1v-6.1h5.2V16.3z"/>
	</g>
</g>
</svg>
